<?xml version="1.0" standalone="no"?>
<!DOCTYPE svg PUBLIC "-//W3C//DTD SVG 20010904//EN"
 "http://www.w3.org/TR/2001/REC-SVG-20010904/DTD/svg10.dtd">
<svg version="1.0" xmlns="http://www.w3.org/2000/svg"
 width="500.000000pt" height="500.000000pt" viewBox="0 0 500.000000 500.000000"
 preserveAspectRatio="xMidYMid meet">
<metadata>
Created by potrace 1.14, written by Peter Selinger 2001-2017
</metadata>
<g transform="translate(0.000000,500.000000) scale(0.100000,-0.100000)"
fill="#000000" stroke="none">
<path d="M4162 4670 c-13 -23 -22 -29 -37 -24 -46 14 -76 16 -90 4 -24 -20
-18 -72 15 -123 17 -26 30 -49 30 -51 0 -2 -13 -9 -30 -16 -46 -19 -58 -39
-35 -57 13 -10 16 -17 8 -20 -32 -12 -146 -109 -216 -183 -105 -112 -221 -289
-366 -563 -67 -126 -137 -254 -157 -284 -49 -78 -117 -147 -164 -168 -37 -17
-44 -17 -122 -2 -195 39 -365 51 -933 67 -473 14 -551 29 -700 132 -44 30
-131 85 -194 123 -67 40 -155 104 -215 158 -140 125 -248 204 -336 246 -72 35
-79 36 -187 36 -104 0 -113 -2 -137 -24 -35 -33 -33 -71 5 -138 l30 -54 -35
-39 c-63 -70 -58 -118 23 -214 l49 -58 -39 -38 c-33 -31 -39 -43 -39 -78 0
-60 14 -87 76 -152 l56 -59 -50 6 c-65 7 -102 -2 -102 -26 0 -10 43 -72 96
-137 118 -146 195 -274 229 -379 29 -90 38 -106 110 -190 52 -62 79 -118 114
-240 11 -38 39 -108 62 -155 22 -47 50 -107 61 -135 37 -93 75 -142 134 -170
29 -14 111 -63 182 -109 120 -79 129 -87 141 -128 34 -114 135 -248 230 -303
49 -29 52 -33 76 -110 30 -99 52 -193 60 -266 7 -53 5 -59 -54 -175 -42 -83
-61 -130 -61 -156 0 -51 15 -48 44 10 29 55 90 122 111 122 7 0 54 -32 102
-71 48 -39 113 -84 143 -99 30 -16 68 -42 84 -59 17 -17 33 -31 37 -31 16 0
18 33 3 71 -13 30 -29 47 -73 72 -31 18 -56 38 -55 43 1 24 177 31 237 10 20
-8 52 -25 71 -40 19 -14 39 -26 45 -26 20 0 11 58 -11 85 -29 33 -66 41 -256
56 -85 6 -166 14 -180 18 -40 10 -49 42 -128 453 -4 20 -1 28 14 32 38 12 102
67 138 116 l36 50 37 -48 c75 -95 176 -167 282 -201 27 -9 65 -44 145 -133
134 -148 215 -250 211 -262 -2 -5 -30 -19 -63 -31 -79 -29 -101 -42 -114 -65
-16 -30 -3 -42 28 -26 15 8 54 22 87 31 33 10 65 20 72 22 6 2 14 -5 18 -16 7
-24 49 -38 239 -76 154 -31 214 -50 244 -78 l22 -20 0 29 c0 44 -17 58 -90 79
-66 19 -125 44 -118 50 2 2 55 11 117 19 63 9 117 19 119 21 9 8 -28 43 -60
56 -24 10 -58 10 -165 0 -159 -14 -139 -23 -281 132 -120 131 -208 245 -196
256 5 4 30 16 57 25 26 10 74 35 105 57 69 46 210 189 271 275 l43 62 160 52
c260 85 426 181 597 345 302 291 478 697 547 1265 19 152 27 653 12 736 l-8
41 53 -4 c45 -3 61 1 112 30 76 43 90 75 75 175 -16 114 -19 109 53 108 62 0
127 23 127 44 0 6 -33 31 -72 57 -102 64 -101 62 -93 166 l7 88 -31 12 c-27
10 -31 16 -31 48 0 38 -20 69 -44 69 -7 0 -25 -9 -39 -20 l-26 -21 5 33 c14
83 -48 120 -94 58 -13 -16 -31 -30 -42 -30 -12 0 -26 12 -35 30 -22 43 -69 42
-93 0z m-2514 -1817 c119 -40 180 -113 189 -227 9 -112 -34 -192 -147 -268
-24 -16 -24 -17 -4 -17 72 -2 129 -119 149 -308 l7 -63 -110 0 -109 0 -5 108
c-7 169 -26 184 -240 190 l-138 4 0 -151 0 -151 -105 0 -105 0 0 456 0 456
278 -4 c247 -4 284 -7 340 -25z m877 12 c77 -16 147 -55 179 -98 30 -41 29
-155 -1 -213 -23 -44 -70 -88 -103 -99 -32 -10 -23 -22 22 -29 52 -9 106 -48
124 -92 20 -48 18 -160 -5 -210 -25 -55 -90 -108 -159 -129 -47 -15 -105 -19
-344 -22 l-287 -5 -3 449 c-2 246 -2 451 0 456 6 14 502 8 577 -8z m1074 -412
c93 -236 175 -440 180 -455 l11 -28 -113 0 -112 0 -26 73 -25 72 -215 3 -214
2 -26 -72 -26 -73 -113 -3 c-104 -2 -112 -1 -108 15 3 10 85 215 183 456 l178
437 128 0 127 0 171 -427z"/>
<path d="M1240 2569 l0 -132 143 5 c197 8 247 35 247 133 0 51 -20 84 -62 106
-32 16 -59 19 -183 19 l-145 0 0 -131z"/>
<path d="M2150 2604 l0 -97 143 5 c167 5 200 17 216 75 8 27 7 44 -2 62 -21
44 -50 51 -209 51 l-148 0 0 -96z"/>
<path d="M2157 2343 c-4 -3 -7 -51 -7 -105 l0 -99 176 3 176 3 24 28 c17 20
24 40 24 71 0 57 -24 86 -80 97 -53 10 -304 12 -313 2z"/>
<path d="M3224 2494 l-71 -194 143 0 c79 0 144 3 144 7 0 10 -132 367 -139
375 -3 4 -38 -81 -77 -188z"/>
</g>
</svg>
